<?xml version="1.0" encoding="iso-8859-1"?>
<!-- Uploaded to: SVG Repo, www.svgrepo.com, Generator: SVG Repo Mixer Tools -->
<svg fill="#000000" height="800px" width="800px" version="1.1" id="Layer_1" xmlns="http://www.w3.org/2000/svg" xmlns:xlink="http://www.w3.org/1999/xlink" 
	 viewBox="0 0 384 384" xml:space="preserve">
<g>
	<g>
		<path d="M68,336H36c-2.208,0-4,1.788-4,4v20c0,2.212,1.792,4,4,4h32c2.208,0,4-1.788,4-4v-20C72,337.788,70.208,336,68,336z
			 M64,356H40v-12h24V356z"/>
	</g>
</g>
<g>
	<g>
		<path d="M352,336h-32c-2.208,0-4,1.788-4,4v20c0,2.212,1.792,4,4,4h32c2.208,0,4-1.788,4-4v-20C356,337.788,354.208,336,352,336z
			 M348,356h-24v-12h24V356z"/>
	</g>
</g>
<g>
	<g>
		<path d="M380,20H4c-2.208,0-4,1.788-4,4v316c0,2.212,1.792,4,4,4h376c2.208,0,4-1.788,4-4V24C384,21.788,382.208,20,380,20z
			 M376,336H8V28h368V336z"/>
	</g>
</g>
<g>
	<g>
		<path d="M352,48c-2.208,0-4,1.788-4,4v112H36V56h252c2.208,0,4-1.788,4-4s-1.792-4-4-4H32c-2.208,0-4,1.788-4,4v116
			c0,2.212,1.792,4,4,4h320c2.208,0,4-1.788,4-4V52C356,49.788,354.208,48,352,48z"/>
	</g>
</g>
<g>
	<g>
		<path d="M352,192c-2.208,0-4,1.788-4,4v112H36V200h252c2.208,0,4-1.788,4-4c0-2.212-1.792-4-4-4H32c-2.208,0-4,1.788-4,4v116
			c0,2.212,1.792,4,4,4h320c2.208,0,4-1.788,4-4V196C356,193.788,354.208,192,352,192z"/>
	</g>
</g>
<g>
	<g>
		<path d="M224,108h-68c-2.208,0-4,1.788-4,4c0,2.212,1.792,4,4,4h68c2.208,0,4-1.788,4-4C228,109.788,226.208,108,224,108z"/>
	</g>
</g>
<g>
	<g>
		<path d="M224,252h-68c-2.208,0-4,1.788-4,4c0,2.212,1.792,4,4,4h68c2.208,0,4-1.788,4-4C228,253.788,226.208,252,224,252z"/>
	</g>
</g>
</svg>