<?xml version="1.0" encoding="iso-8859-1"?>
<!-- Uploaded to: SVG Repo, www.svgrepo.com, Generator: SVG Repo Mixer Tools -->
<svg fill="#000000" height="800px" width="800px" version="1.1" id="Layer_1" xmlns="http://www.w3.org/2000/svg" xmlns:xlink="http://www.w3.org/1999/xlink" 
	 viewBox="0 0 512 512" xml:space="preserve">
<g>
	<g>
		<path d="M413.538,177.231H384V59.077c0-5.438-4.404-9.846-9.846-9.846h-49.231c-5.442,0-9.846,4.409-9.846,9.846v118.154H256
			h-68.923v-40.172c33.341-4.803,59.077-33.482,59.077-68.136C246.154,30.918,215.231,0,177.231,0s-68.923,30.918-68.923,68.923
			c0,34.654,25.736,63.333,59.077,68.136v40.172H98.462H59.077v19.692h29.538v49.231v196.923v29.538V512h19.692v-29.538H256h147.692
			V512h19.692v-39.385v-29.538V246.154v-49.231h29.538v-19.692H413.538z M128,68.923c0-27.144,22.087-49.231,49.231-49.231
			s49.231,22.087,49.231,49.231c0,27.144-22.087,49.231-49.231,49.231S128,96.067,128,68.923z M246.154,462.769H108.308v-19.692V256
			h137.846V462.769z M246.154,236.308H108.308v-39.385h59.077h19.692h59.077V236.308z M334.769,68.923h29.538v108.308h-29.538
			V68.923z M403.692,443.077v19.692H265.846V256h137.846V443.077z M403.692,236.308H265.846v-39.385h59.077h49.231h29.538V236.308z"
			/>
	</g>
</g>
</svg>