<?xml version="1.0" encoding="utf-8"?>
<!-- Uploaded to: SVG Repo, www.svgrepo.com, Generator: SVG Repo Mixer Tools -->
<svg width="800px" height="800px" viewBox="-56.24 0 255.85 255.85" xmlns="http://www.w3.org/2000/svg">

<defs>

<style>.cls-1{fill:#ffffff;}</style>

</defs>

<g id="Layer_2" data-name="Layer 2">

<g id="Layer_1-2" data-name="Layer 1">

<path d="M59.45,192.8a15.37,15.37,0,0,0,.67-3.52c-1.16-17.07-2.38-34.14-3.62-51.67-7.09-.87-13.81-1.9-20.58-2.46-9.76-.79-19.24-3-28.67-5.37C1.73,128.37.52,126.52.11,120.6a32.36,32.36,0,0,1-.06-4.29C1.19,98,2.91,79.83,6.5,61.82,8.23,53.14,9,44.26,10.41,35.5c2.41-14.84,1.91-14.22,14.7-23.35A42.38,42.38,0,0,1,40,5.76C52.24,2.74,64.57.47,77.25.07a92.86,92.86,0,0,1,27.21,2.74c9.62,2.55,15.06,9.18,17.83,17.9,2.85,9,4.54,18.31,6.68,27.5q6.14,26.33,12.23,52.67a5.22,5.22,0,0,0,1,2.33c2.37,2.59.76,4.91-.66,6.91A19.1,19.1,0,0,1,137,114c-12.09,8.86-25,16.16-39.4,20.59-1.9.58-3.74,1.34-5.78,2.08-1.59,5.86.87,11.39.94,17,.08,6,.76,12,1.23,18,.44,5.68,1,11.35,1.45,17.24a18.46,18.46,0,0,0,3.53,1c8.69.48,15.79,4.65,22.62,9.52,3.66,2.6,6.54,6.08,7.2,10.33,1.23,7.86,2.58,15.79.75,23.83a16.52,16.52,0,0,1-5.44,9.44,43.11,43.11,0,0,1-16.53,8.79C91.28,256.3,74.75,256.54,58.1,255c-5.68-.54-11.38-1-16.77-3.31C32.8,248,28.17,241.52,28.14,232.37A176.15,176.15,0,0,1,29.74,211a13,13,0,0,1,5.88-9.15c5.68-4,11.66-7.27,18.7-8.16C56,193.49,57.61,193.12,59.45,192.8ZM17.86,30.87c-.33,1.51-.65,2.61-.79,3.73C15.46,47.38,13.78,60.16,12.31,73c-1.62,14.22-3.08,28.46-4.51,42.7a37.37,37.37,0,0,0,.34,6c6.15,2.67,12.35,3.6,18.55,4.46,5.1.7,10.22,1.35,15.36,1.7,8.55.58,17.05,2.34,25.68,1.35,6.26-.72,12.5-1.56,18.76-2.28,18.4-2.1,34.47-9.7,49.69-20.87-.53-2.46-.9-5-1.6-7.39-5-17.33-8.76-35-12.75-52.53-1.33-5.86-2.83-11.68-4.28-17.51-.76-3.05-1.6-6.07-5.21-7.25-1.31.82-2.56,1.5-3.71,2.33-10.11,7.26-22.2,8.81-33.79,11.8a10,10,0,0,1-2.57.17c-10.59-.07-21.17-.06-31.76-.3A52.43,52.43,0,0,1,31.22,34C26.8,33.07,22.44,32,17.86,30.87Zm42,171.35c-4.07-1.14-7.22-.54-9.88,1.24a120.38,120.38,0,0,0-11.48,8.8c-.87.74-1.09,2.6-1.07,4,0,4.55,3.19,7.21,6.53,9.47a49.15,49.15,0,0,0,20.54,8.19,109.82,109.82,0,0,0,34.19-.16,44,44,0,0,0,15.82-6.3,18.33,18.33,0,0,0,5.84-6.07c3.14-5.3,1.81-10.07-3.64-13-4.48-2.43-9.29-4.26-13.61-6.21-2.27,4.86-4.06,9.3-6.39,13.43-2,3.6-4.89,6.29-9.67,5.76-1.64-.19-3.36.51-5.06.72a19.11,19.11,0,0,1-21.54-16.16C60.28,204.74,60.11,203.65,59.88,202.22Zm23-63.83c-6.28,0-11.38,0-16.49.05a6.12,6.12,0,0,0-2.14.92,8,8,0,0,0-.2,1.88c3,20.08,3.89,40.32,4.68,60.57a21.43,21.43,0,0,0,.45,4.25c1.7,7.24,11.68,10.37,17.07,5.4,3.38-3.12,4.11-6,2-10.81-1.29-3-2.3-5.67-1.28-9,.46-1.52-.2-3.38-.32-5.08C85.79,174,85,161.51,84,149,83.78,145.6,83.28,142.24,82.85,138.39ZM27.1,24.13A23.78,23.78,0,0,0,39.21,28c17.72.83,35.38.72,52.52-4.92,3-1,6.08-1.58,9-2.69,3.76-1.42,7.19-3.36,7.77-8.6a68,68,0,0,0-26.71-5.3c-4.84.07-9.66.79-14.5,1.09-10.33.64-20.2,3.61-30.21,5.84C31.57,14.59,28.26,18.17,27.1,24.13Zm9.65,207.76c-.87,5,1.07,8,4.25,10.34a29.36,29.36,0,0,0,11.76,5,109,109,0,0,0,41.74.65,131.36,131.36,0,0,0,14.2-3.2,23.46,23.46,0,0,0,12.53-8.6c.92-1.25,1.09-2.58-.48-3.57C95.66,245.72,63.34,245.22,36.75,231.89Z"/>

<path class="cls-1" d="M17.86,30.87C22.44,32,26.8,33.07,31.22,34a52.43,52.43,0,0,0,9.29,1.35c10.59.24,21.17.23,31.76.3a10,10,0,0,0,2.57-.17c11.59-3,23.68-4.54,33.79-11.8,1.15-.83,2.4-1.51,3.71-2.33,3.61,1.18,4.45,4.2,5.21,7.25,1.45,5.83,3,11.65,4.28,17.51,4,17.57,7.76,35.2,12.75,52.53.7,2.42,1.07,4.93,1.6,7.39-15.22,11.17-31.29,18.77-49.69,20.87-6.26.72-12.5,1.56-18.76,2.28-8.63,1-17.13-.77-25.68-1.35-5.14-.35-10.26-1-15.36-1.7-6.2-.86-12.4-1.79-18.55-4.46a37.37,37.37,0,0,1-.34-6c1.43-14.24,2.89-28.48,4.51-42.7,1.47-12.81,3.15-25.59,4.76-38.37C17.21,33.48,17.53,32.38,17.86,30.87Z"/>

<path class="cls-1" d="M59.88,202.22c.23,1.43.4,2.52.58,3.62A19.11,19.11,0,0,0,82,222c1.7-.21,3.42-.91,5.06-.72,4.78.53,7.65-2.16,9.67-5.76,2.33-4.13,4.12-8.57,6.39-13.43,4.32,1.95,9.13,3.78,13.61,6.21,5.45,3,6.78,7.74,3.64,13a18.33,18.33,0,0,1-5.84,6.07,44,44,0,0,1-15.82,6.3,109.82,109.82,0,0,1-34.19.16A49.15,49.15,0,0,1,44,225.68c-3.34-2.26-6.5-4.92-6.53-9.47,0-1.35.2-3.21,1.07-4A120.38,120.38,0,0,1,50,203.46C52.66,201.68,55.81,201.08,59.88,202.22Z"/>

<path class="cls-1" d="M82.85,138.39c.43,3.85.93,7.21,1.18,10.59.92,12.53,1.76,25.06,2.63,37.59.12,1.7.78,3.56.32,5.08-1,3.33,0,6,1.28,9,2.07,4.78,1.34,7.69-2,10.81-5.39,5-15.37,1.84-17.07-5.4a21.43,21.43,0,0,1-.45-4.25C67.91,181.56,67,161.32,64,141.24a8,8,0,0,1,.2-1.88,6.12,6.12,0,0,1,2.14-.92C71.47,138.35,76.57,138.39,82.85,138.39Z"/>

<path class="cls-1" d="M27.1,24.13c1.16-6,4.47-9.54,10-10.76,10-2.23,19.88-5.2,30.21-5.84,4.84-.3,9.66-1,14.5-1.09a68,68,0,0,1,26.71,5.3c-.58,5.24-4,7.18-7.77,8.6-2.92,1.11-6,1.71-9,2.69C74.59,28.67,56.93,28.78,39.21,28A23.78,23.78,0,0,1,27.1,24.13Z"/>

<path class="cls-1" d="M36.75,231.89c26.59,13.33,58.91,13.83,84,.62,1.57,1,1.4,2.32.48,3.57a23.46,23.46,0,0,1-12.53,8.6,131.36,131.36,0,0,1-14.2,3.2,109,109,0,0,1-41.74-.65,29.36,29.36,0,0,1-11.76-5C37.82,239.89,35.88,236.93,36.75,231.89Z"/>

</g>

</g>

</svg>