<?xml version="1.0" encoding="iso-8859-1"?>
<!-- Uploaded to: SVG Repo, www.svgrepo.com, Generator: SVG Repo Mixer Tools -->
<svg fill="#000000" height="800px" width="800px" version="1.1" id="Layer_1" xmlns="http://www.w3.org/2000/svg" xmlns:xlink="http://www.w3.org/1999/xlink" 
	 viewBox="0 0 512 512" xml:space="preserve">
<g>
	<g>
		<path d="M492,408H20c-2.208,0-4,1.788-4,4c0,2.212,1.792,4,4,4h472c2.208,0,4-1.788,4-4C496,409.788,494.208,408,492,408z"/>
	</g>
</g>
<g>
	<g>
		<path d="M492,340H272c-2.208,0-4,1.788-4,4c0,2.212,1.792,4,4,4h220c2.208,0,4-1.788,4-4C496,341.788,494.208,340,492,340z"/>
	</g>
</g>
<g>
	<g>
		<path d="M256,340H20c-2.208,0-4,1.788-4,4c0,2.212,1.792,4,4,4h236c2.208,0,4-1.788,4-4C260,341.788,258.208,340,256,340z"/>
	</g>
</g>
<g>
	<g>
		<path d="M160,372h-44c-2.208,0-4,1.788-4,4c0,2.212,1.792,4,4,4h44c2.208,0,4-1.788,4-4C164,373.788,162.208,372,160,372z"/>
	</g>
</g>
<g>
	<g>
		<path d="M396,372h-44c-2.208,0-4,1.788-4,4c0,2.212,1.792,4,4,4h44c2.208,0,4-1.788,4-4C400,373.788,398.208,372,396,372z"/>
	</g>
</g>
<g>
	<g>
		<path d="M256,288c-2.208,0-4,1.788-4,4v120c0,2.212,1.792,4,4,4s4-1.788,4-4V292C260,289.788,258.208,288,256,288z"/>
	</g>
</g>
<g>
	<g>
		<path d="M492,272H20c-11.028,0-20,8.972-20,20v148c0,2.212,1.792,4,4,4h16c2.208,0,4-1.788,4-4V296h464v144c0,2.212,1.792,4,4,4
			h16c2.208,0,4-1.788,4-4V292C512,280.972,503.028,272,492,272z M504,436h-8V292c0-2.212-1.792-4-4-4H20c-2.208,0-4,1.788-4,4v144
			H8V292c0-6.616,5.384-12,12-12h472c6.616,0,12,5.384,12,12V436z"/>
	</g>
</g>
<g>
	<g>
		<path d="M424,68H88c-6.616,0-12,5.384-12,12v160c0,6.616,5.384,12,12,12h336c6.616,0,12-5.384,12-12V80
			C436,73.384,430.616,68,424,68z M428,240c0,2.204-1.796,4-4,4H88c-2.204,0-4-1.796-4-4V80c0-2.204,1.796-4,4-4h336
			c2.204,0,4,1.796,4,4V240z"/>
	</g>
</g>
<g>
	<g>
		<path d="M416,84H96c-2.208,0-4,1.792-4,4v144c0,2.208,1.792,4,4,4h320c2.208,0,4-1.792,4-4V88C420,85.792,418.208,84,416,84z
			 M412,228H100V92h312V228z"/>
	</g>
</g>
<g>
	<g>
		<path d="M224,248c-2.208,0-4,1.792-4,4v24c0,2.212,1.792,4,4,4s4-1.788,4-4v-24C228,249.792,226.208,248,224,248z"/>
	</g>
</g>
<g>
	<g>
		<path d="M288,248c-2.208,0-4,1.792-4,4v24c0,2.212,1.792,4,4,4s4-1.788,4-4v-24C292,249.792,290.208,248,288,248z"/>
	</g>
</g>
<g>
	<g>
		<path d="M238.84,125.1l-39.012-39.012c-1.564-1.564-4.092-1.564-5.656,0c-1.564,1.564-1.564,4.092,0,5.656l39.012,39.012
			c0.78,0.78,1.804,1.172,2.828,1.172c1.024,0,2.048-0.388,2.828-1.172C240.404,129.192,240.404,126.664,238.84,125.1z"/>
	</g>
</g>
<g>
	<g>
		<path d="M298.848,185.108L258.84,145.1c-1.564-1.564-4.092-1.564-5.656,0c-1.564,1.564-1.564,4.092,0,5.656l40.008,40.008
			c0.78,0.78,1.804,1.172,2.828,1.172s2.048-0.388,2.828-1.172C300.412,189.2,300.412,186.672,298.848,185.108z"/>
	</g>
</g>
<g>
	<g>
		<path d="M299.1,229.172l-80.332-80.336c-1.564-1.564-4.092-1.564-5.656,0c-1.564,1.564-1.564,4.092,0,5.656l80.332,80.336
			c0.78,0.78,1.804,1.172,2.828,1.172s2.048-0.392,2.828-1.172C300.664,233.264,300.664,230.736,299.1,229.172z"/>
	</g>
</g>
</svg>