<?xml version="1.0" encoding="iso-8859-1"?>
<!-- Uploaded to: SVG Repo, www.svgrepo.com, Generator: SVG Repo Mixer Tools -->
<!DOCTYPE svg PUBLIC "-//W3C//DTD SVG 1.1//EN" "http://www.w3.org/Graphics/SVG/1.1/DTD/svg11.dtd">
<svg fill="#000000" height="800px" width="800px" version="1.1" id="Capa_1" xmlns="http://www.w3.org/2000/svg" xmlns:xlink="http://www.w3.org/1999/xlink" 
	 viewBox="0 0 487.859 487.859" xml:space="preserve">
<path d="M482.859,123.609H5c-2.761,0-5,2.239-5,5v43.44c0,2.761,2.239,5,5,5h5.86V359.25c0,2.761,2.239,5,5,5h32.58
	c2.761,0,5-2.239,5-5V209.121h76.88V359.25c0,2.761,2.239,5,5,5h32.59c2.761,0,5-2.239,5-5V209.121h152.905v150.126
	c0,2.761,2.239,5,5,5h32.582c2.761,0,5-2.239,5-5V209.121h66.024v150.126c0,2.761,2.239,5,5,5h32.582c2.761,0,5-2.239,5-5V177.049
	h5.857c2.761,0,5-2.239,5-5v-43.44C487.859,125.848,485.621,123.609,482.859,123.609z M10,133.609h143.596v33.44h-18.213
	c-0.021,0-0.041-0.006-0.063-0.006H32.15c-0.022,0-0.042,0.006-0.063,0.006H10V133.609z M43.439,354.25H20.86V177.049h6.29v27.071
	c0,2.761,2.239,5,5,5h11.29V354.25z M37.15,199.121v-22.071h93.17v22.071H37.15z M162.91,354.25h-22.59V204.121v-27.071h22.59
	v27.071V354.25z M358.396,354.247h-22.582V209.121h22.582V354.247z M467.002,354.247H444.42V209.121h11.291c2.761,0,5-2.239,5-5
	v-27.071h6.291V354.247z M477.859,167.049h-28.657c-2.761,0-5,2.239-5,5s2.239,5,5,5h1.509v22.071H172.91v-22.071h246.274
	c2.761,0,5-2.239,5-5s-2.239-5-5-5H167.91h-4.313v-33.44h314.263V167.049z"/>
</svg>